<svg xmlns="http://www.w3.org/2000/svg" width="19.497" height="15.162" viewBox="0 0 19.497 15.162">
  <path id="Icon_awesome-home" data-name="Icon awesome-home" d="M9.489,6.187l-6.24,5.14v5.547a.542.542,0,0,0,.542.542l3.793-.01a.542.542,0,0,0,.539-.542V13.624a.542.542,0,0,1,.542-.542H10.83a.542.542,0,0,1,.542.542v3.237a.542.542,0,0,0,.542.543l3.791.01a.542.542,0,0,0,.542-.542V11.323L10.007,6.187A.413.413,0,0,0,9.489,6.187ZM19.346,9.68l-2.83-2.332V2.66a.406.406,0,0,0-.406-.406h-1.9a.406.406,0,0,0-.406.406V5.117l-3.03-2.493a1.625,1.625,0,0,0-2.065,0L.146,9.68a.406.406,0,0,0-.054.572L.955,11.3a.406.406,0,0,0,.572.055L9.489,4.8a.413.413,0,0,1,.518,0l7.962,6.557a.406.406,0,0,0,.572-.054l.863-1.049a.406.406,0,0,0-.058-.573Z" transform="translate(0.001 -2.254)" fill="#343773"/>
</svg>
