<svg xmlns="http://www.w3.org/2000/svg" width="6.69" height="13.381" viewBox="0 0 6.69 13.381">
  <path id="Icon_awesome-ruler-vertical" data-name="Icon awesome-ruler-vertical" d="M4.391,10.872a.209.209,0,0,1-.209-.209v-.418a.209.209,0,0,1,.209-.209h2.3V8.363h-2.3a.209.209,0,0,1-.209-.209V7.736a.209.209,0,0,1,.209-.209h2.3V5.854h-2.3a.209.209,0,0,1-.209-.209V5.227a.209.209,0,0,1,.209-.209h2.3V3.345h-2.3a.209.209,0,0,1-.209-.209V2.718a.209.209,0,0,1,.209-.209h2.3V.836A.836.836,0,0,0,5.854,0H.836A.836.836,0,0,0,0,.836V12.545a.836.836,0,0,0,.836.836H5.854a.836.836,0,0,0,.836-.836V10.872Z" fill="#561785"/>
</svg>
